<mxfile host="app.diagrams.net" modified="2023-05-19T00:58:28.800Z" agent="Mozilla/5.0 (X11; Linux x86_64) AppleWebKit/537.36 (KHTML, like Gecko) Chrome/112.0.0.0 Safari/537.36" etag="MT2rqt_FIb7XYORIqRF0" version="21.3.2" type="device">
  <diagram name="Page-1" id="1WCwmBmnhbWaIjDkn7tj">
    <mxGraphModel dx="1354" dy="676" grid="1" gridSize="10" guides="1" tooltips="1" connect="1" arrows="1" fold="1" page="1" pageScale="1" pageWidth="850" pageHeight="1100" math="0" shadow="0">
      <root>
        <mxCell id="0" />
        <mxCell id="1" parent="0" />
        <mxCell id="0W7yJdJV5J2ukGikacYv-9" style="edgeStyle=orthogonalEdgeStyle;rounded=0;orthogonalLoop=1;jettySize=auto;html=1;" edge="1" parent="1">
          <mxGeometry relative="1" as="geometry">
            <mxPoint x="360" y="450" as="targetPoint" />
            <mxPoint x="185" y="310" as="sourcePoint" />
            <Array as="points">
              <mxPoint x="200" y="310" />
              <mxPoint x="200" y="370" />
              <mxPoint x="360" y="370" />
              <mxPoint x="360" y="440" />
            </Array>
          </mxGeometry>
        </mxCell>
        <mxCell id="0W7yJdJV5J2ukGikacYv-8" value="" style="edgeStyle=orthogonalEdgeStyle;rounded=0;orthogonalLoop=1;jettySize=auto;html=1;exitX=0.46;exitY=1.016;exitDx=0;exitDy=0;exitPerimeter=0;" edge="1" parent="1" source="0W7yJdJV5J2ukGikacYv-13">
          <mxGeometry relative="1" as="geometry">
            <mxPoint x="570" y="190" as="sourcePoint" />
            <mxPoint x="360" y="450" as="targetPoint" />
            <Array as="points">
              <mxPoint x="510" y="313" />
              <mxPoint x="510" y="370" />
              <mxPoint x="360" y="370" />
            </Array>
          </mxGeometry>
        </mxCell>
        <mxCell id="0W7yJdJV5J2ukGikacYv-10" value="Domestic Flights" style="swimlane;childLayout=stackLayout;horizontal=1;startSize=50;horizontalStack=0;rounded=1;fontSize=14;fontStyle=0;strokeWidth=2;resizeParent=0;resizeLast=1;shadow=0;dashed=0;align=center;arcSize=4;whiteSpace=wrap;html=1;" vertex="1" parent="1">
          <mxGeometry x="140" y="70" width="150" height="240" as="geometry" />
        </mxCell>
        <mxCell id="0W7yJdJV5J2ukGikacYv-11" value="- char f_d[ ]&lt;br&gt;- char toja[ ]&lt;br&gt;- char tojd[ ]&lt;br&gt;- long int doj&lt;br&gt;- int choice&lt;br&gt;- int src&lt;br&gt;- int dest&lt;br&gt;&lt;br&gt;&lt;br&gt;+ j_detail&lt;br&gt;+ select_flight" style="align=left;strokeColor=none;fillColor=none;spacingLeft=4;fontSize=12;verticalAlign=top;resizable=0;rotatable=0;part=1;html=1;" vertex="1" parent="0W7yJdJV5J2ukGikacYv-10">
          <mxGeometry y="50" width="150" height="190" as="geometry" />
        </mxCell>
        <mxCell id="0W7yJdJV5J2ukGikacYv-15" value="" style="endArrow=none;html=1;rounded=0;exitX=0;exitY=0.605;exitDx=0;exitDy=0;exitPerimeter=0;entryX=0.987;entryY=0.6;entryDx=0;entryDy=0;entryPerimeter=0;" edge="1" parent="0W7yJdJV5J2ukGikacYv-10" source="0W7yJdJV5J2ukGikacYv-11" target="0W7yJdJV5J2ukGikacYv-11">
          <mxGeometry width="50" height="50" relative="1" as="geometry">
            <mxPoint y="160" as="sourcePoint" />
            <mxPoint x="150" y="160" as="targetPoint" />
            <Array as="points" />
          </mxGeometry>
        </mxCell>
        <mxCell id="0W7yJdJV5J2ukGikacYv-16" value="Methods" style="edgeLabel;html=1;align=center;verticalAlign=middle;resizable=0;points=[];" vertex="1" connectable="0" parent="0W7yJdJV5J2ukGikacYv-15">
          <mxGeometry x="-0.1467" y="3" relative="1" as="geometry">
            <mxPoint as="offset" />
          </mxGeometry>
        </mxCell>
        <mxCell id="0W7yJdJV5J2ukGikacYv-17" value="Item" style="text;strokeColor=none;fillColor=none;spacingLeft=4;spacingRight=4;overflow=hidden;rotatable=0;points=[[0,0.5],[1,0.5]];portConstraint=eastwest;fontSize=12;whiteSpace=wrap;html=1;" vertex="1" parent="0W7yJdJV5J2ukGikacYv-10">
          <mxGeometry y="240" width="150" as="geometry" />
        </mxCell>
        <mxCell id="0W7yJdJV5J2ukGikacYv-12" value="International flights" style="swimlane;childLayout=stackLayout;horizontal=1;startSize=50;horizontalStack=0;rounded=1;fontSize=14;fontStyle=0;strokeWidth=2;resizeParent=0;resizeLast=1;shadow=0;dashed=0;align=center;arcSize=4;whiteSpace=wrap;html=1;" vertex="1" parent="1">
          <mxGeometry x="440" y="70" width="150" height="240" as="geometry" />
        </mxCell>
        <mxCell id="0W7yJdJV5J2ukGikacYv-13" value="- char f_i[ ]&lt;br&gt;- char tojai[ ]&lt;br&gt;- char tojdi[ ]&lt;br&gt;- long int doji&lt;br&gt;- int srci&lt;br&gt;- int desti&lt;br&gt;- int choicei&lt;br&gt;&lt;br&gt;&lt;br&gt;+ j_detaili&lt;br&gt;+ select_flighti" style="align=left;strokeColor=none;fillColor=none;spacingLeft=4;fontSize=12;verticalAlign=top;resizable=0;rotatable=0;part=1;html=1;" vertex="1" parent="0W7yJdJV5J2ukGikacYv-12">
          <mxGeometry y="50" width="150" height="190" as="geometry" />
        </mxCell>
        <mxCell id="0W7yJdJV5J2ukGikacYv-20" value="" style="endArrow=none;html=1;rounded=0;exitX=0.013;exitY=0.611;exitDx=0;exitDy=0;exitPerimeter=0;entryX=0.993;entryY=0.605;entryDx=0;entryDy=0;entryPerimeter=0;" edge="1" parent="0W7yJdJV5J2ukGikacYv-12" source="0W7yJdJV5J2ukGikacYv-13" target="0W7yJdJV5J2ukGikacYv-13">
          <mxGeometry width="50" height="50" relative="1" as="geometry">
            <mxPoint x="2" y="161" as="sourcePoint" />
            <mxPoint x="150" y="160" as="targetPoint" />
            <Array as="points" />
          </mxGeometry>
        </mxCell>
        <mxCell id="0W7yJdJV5J2ukGikacYv-21" value="&amp;nbsp;Methods" style="edgeLabel;html=1;align=center;verticalAlign=middle;resizable=0;points=[];" vertex="1" connectable="0" parent="0W7yJdJV5J2ukGikacYv-20">
          <mxGeometry x="-0.1467" y="3" relative="1" as="geometry">
            <mxPoint as="offset" />
          </mxGeometry>
        </mxCell>
        <mxCell id="0W7yJdJV5J2ukGikacYv-27" style="edgeStyle=orthogonalEdgeStyle;rounded=0;orthogonalLoop=1;jettySize=auto;html=1;exitX=0.5;exitY=1;exitDx=0;exitDy=0;" edge="1" parent="0W7yJdJV5J2ukGikacYv-12" source="0W7yJdJV5J2ukGikacYv-13" target="0W7yJdJV5J2ukGikacYv-13">
          <mxGeometry relative="1" as="geometry" />
        </mxCell>
        <mxCell id="0W7yJdJV5J2ukGikacYv-22" value="passenger" style="swimlane;childLayout=stackLayout;horizontal=1;startSize=50;horizontalStack=0;rounded=1;fontSize=14;fontStyle=0;strokeWidth=2;resizeParent=0;resizeLast=1;shadow=0;dashed=0;align=center;arcSize=4;whiteSpace=wrap;html=1;" vertex="1" parent="1">
          <mxGeometry x="280" y="440" width="160" height="250" as="geometry" />
        </mxCell>
        <mxCell id="0W7yJdJV5J2ukGikacYv-23" value="- char f_name[ ]&lt;br&gt;- char l_name[ ]&lt;br&gt;- char email[ ]&lt;br&gt;- int age&lt;br&gt;- int gender&lt;br&gt;- long int c_no&lt;br&gt;&lt;br&gt;+ p_detail&lt;br&gt;+ gender_check&lt;br&gt;+ more_details&lt;br&gt;+ disp&lt;br&gt;+ dispi" style="align=left;strokeColor=none;fillColor=none;spacingLeft=4;fontSize=12;verticalAlign=top;resizable=0;rotatable=0;part=1;html=1;" vertex="1" parent="0W7yJdJV5J2ukGikacYv-22">
          <mxGeometry y="50" width="160" height="200" as="geometry" />
        </mxCell>
        <mxCell id="0W7yJdJV5J2ukGikacYv-25" value="" style="endArrow=none;html=1;rounded=0;exitX=0;exitY=0.605;exitDx=0;exitDy=0;exitPerimeter=0;entryX=1;entryY=0.5;entryDx=0;entryDy=0;" edge="1" parent="0W7yJdJV5J2ukGikacYv-22" target="0W7yJdJV5J2ukGikacYv-23">
          <mxGeometry width="50" height="50" relative="1" as="geometry">
            <mxPoint y="151" as="sourcePoint" />
            <mxPoint x="148" y="150" as="targetPoint" />
            <Array as="points" />
          </mxGeometry>
        </mxCell>
        <mxCell id="0W7yJdJV5J2ukGikacYv-26" value="Methods" style="edgeLabel;html=1;align=center;verticalAlign=middle;resizable=0;points=[];" vertex="1" connectable="0" parent="0W7yJdJV5J2ukGikacYv-25">
          <mxGeometry x="-0.1467" y="3" relative="1" as="geometry">
            <mxPoint as="offset" />
          </mxGeometry>
        </mxCell>
        <mxCell id="0W7yJdJV5J2ukGikacYv-29" value="Payment" style="swimlane;childLayout=stackLayout;horizontal=1;startSize=50;horizontalStack=0;rounded=1;fontSize=14;fontStyle=0;strokeWidth=2;resizeParent=0;resizeLast=1;shadow=0;dashed=0;align=center;arcSize=4;whiteSpace=wrap;html=1;" vertex="1" parent="1">
          <mxGeometry x="651" y="70" width="160" height="240" as="geometry" />
        </mxCell>
        <mxCell id="0W7yJdJV5J2ukGikacYv-30" value="- long int choice1&lt;br&gt;- long int bank&lt;br&gt;- long int card&lt;br&gt;- long int date&lt;br&gt;- long int cvv&lt;br&gt;- long int user_id&lt;br&gt;- char password[ ]&lt;br&gt;&lt;br&gt;&lt;br&gt;+ pay_detail" style="align=left;strokeColor=none;fillColor=none;spacingLeft=4;fontSize=12;verticalAlign=top;resizable=0;rotatable=0;part=1;html=1;" vertex="1" parent="0W7yJdJV5J2ukGikacYv-29">
          <mxGeometry y="50" width="160" height="190" as="geometry" />
        </mxCell>
        <mxCell id="0W7yJdJV5J2ukGikacYv-33" value="" style="endArrow=none;html=1;rounded=0;exitX=0.013;exitY=0.611;exitDx=0;exitDy=0;exitPerimeter=0;entryX=1;entryY=0.637;entryDx=0;entryDy=0;entryPerimeter=0;" edge="1" parent="0W7yJdJV5J2ukGikacYv-29" target="0W7yJdJV5J2ukGikacYv-30">
          <mxGeometry width="50" height="50" relative="1" as="geometry">
            <mxPoint y="171" as="sourcePoint" />
            <mxPoint x="147" y="170" as="targetPoint" />
            <Array as="points" />
          </mxGeometry>
        </mxCell>
        <mxCell id="0W7yJdJV5J2ukGikacYv-34" value="&amp;nbsp;Methods" style="edgeLabel;html=1;align=center;verticalAlign=middle;resizable=0;points=[];" vertex="1" connectable="0" parent="0W7yJdJV5J2ukGikacYv-33">
          <mxGeometry x="-0.1467" y="3" relative="1" as="geometry">
            <mxPoint as="offset" />
          </mxGeometry>
        </mxCell>
      </root>
    </mxGraphModel>
  </diagram>
</mxfile>
